<svg width="78" height="29" viewBox="0 0 78 29" fill="none" xmlns="http://www.w3.org/2000/svg">
<path d="M1.03147 7.47166L4.51034 13.0713C4.7265 13.4192 5.06962 13.737 5.50522 13.9926C5.94081 14.2483 6.45353 14.4328 6.99181 14.5277L68.2333 28.8383C68.7715 28.9332 69.3163 28.9351 69.813 28.8438C70.3097 28.7526 70.7407 28.5713 71.0628 28.3184L76.8481 20.8402C77.1702 20.5872 77.3719 20.2714 77.4331 19.9245C77.4943 19.5776 77.4127 19.2118 77.1966 18.8639L74.3179 9.85777C74.1018 9.5099 73.7587 9.19218 73.3232 8.93654C72.8877 8.68091 72.3751 8.49636 71.8369 8.40145L9.3942 0.90312C8.85592 0.808166 8.31102 0.806221 7.81425 0.897473C7.31749 0.988728 6.88638 1.16997 6.56426 1.42297L1.37994 5.49542C1.05786 5.7484 0.85609 6.06421 0.794921 6.41112C0.733753 6.75802 0.815339 7.12378 1.03147 7.47166Z" fill="white"/>
</svg>
