<svg width="142" height="426" viewBox="0 0 142 426" fill="none" xmlns="http://www.w3.org/2000/svg">
<g filter="url(#filter0_d_531_1023)">
<ellipse cx="23.7698" cy="23.7698" rx="23.7698" ry="23.7698" transform="matrix(-1 0 0 1 57.5396 365.46)" fill="white" fill-opacity="0.5" shape-rendering="crispEdges"/>
</g>
<g filter="url(#filter1_d_531_1023)">
<path d="M123.795 11.4811L130.313 25.9323C131.791 29.2087 132.094 32.8944 131.171 36.3682L37.0269 390.767C36.6859 392.051 35.3929 392.837 34.0961 392.549C32.7993 392.262 31.9604 391.002 32.1945 389.695L96.8106 28.7424C97.4439 25.2045 99.2777 21.993 102.003 19.6494L114.022 9.31218C117.187 6.59055 122.079 7.67626 123.795 11.4811Z" fill="white"/>
</g>
<defs>
<filter id="filter0_d_531_1023" x="0.625003" y="359.21" width="66.2895" height="66.2895" filterUnits="userSpaceOnUse" color-interpolation-filters="sRGB">
<feFlood flood-opacity="0" result="BackgroundImageFix"/>
<feColorMatrix in="SourceAlpha" type="matrix" values="0 0 0 0 0 0 0 0 0 0 0 0 0 0 0 0 0 0 127 0" result="hardAlpha"/>
<feOffset dy="3.125"/>
<feGaussianBlur stdDeviation="4.6875"/>
<feComposite in2="hardAlpha" operator="out"/>
<feColorMatrix type="matrix" values="0 0 0 0 0.529412 0 0 0 0 0.196078 0 0 0 0 0.00784314 0 0 0 0.75 0"/>
<feBlend mode="normal" in2="BackgroundImageFix" result="effect1_dropShadow_531_1023"/>
<feBlend mode="normal" in="SourceGraphic" in2="effect1_dropShadow_531_1023" result="shape"/>
</filter>
<filter id="filter1_d_531_1023" x="22.7803" y="1.54932" width="118.289" height="403.56" filterUnits="userSpaceOnUse" color-interpolation-filters="sRGB">
<feFlood flood-opacity="0" result="BackgroundImageFix"/>
<feColorMatrix in="SourceAlpha" type="matrix" values="0 0 0 0 0 0 0 0 0 0 0 0 0 0 0 0 0 0 127 0" result="hardAlpha"/>
<feOffset dy="3.125"/>
<feGaussianBlur stdDeviation="4.6875"/>
<feComposite in2="hardAlpha" operator="out"/>
<feColorMatrix type="matrix" values="0 0 0 0 0.529412 0 0 0 0 0.196078 0 0 0 0 0.00784314 0 0 0 0.75 0"/>
<feBlend mode="normal" in2="BackgroundImageFix" result="effect1_dropShadow_531_1023"/>
<feBlend mode="normal" in="SourceGraphic" in2="effect1_dropShadow_531_1023" result="shape"/>
</filter>
</defs>
</svg>
