<svg width="40" height="45" viewBox="0 0 40 45" fill="none" xmlns="http://www.w3.org/2000/svg">
<path d="M36.5939 35.0394L36.5939 35.0394L22.3963 43.349C21.667 43.7758 20.8407 44 20.0004 44C19.1601 44 18.3339 43.7758 17.6045 43.349L3.40612 35.0394C2.67669 34.6125 2.06929 33.9975 1.6463 33.2549C1.22326 32.5121 1.00002 31.6686 1 30.8092L1 14.1908L1 14.1907C0.999904 13.3312 1.22308 12.4875 1.64613 11.7446C2.06911 11.0018 2.67657 10.3867 3.40608 9.95978C3.40609 9.95977 3.40611 9.95976 3.40612 9.95976L17.6045 1.65104L17.6045 1.65101C18.3339 1.22416 19.1601 0.999998 20.0004 0.999998C20.8407 0.999998 21.667 1.22417 22.3963 1.65101L22.898 0.793799L22.3963 1.65103L36.5939 9.95976C37.3233 10.3867 37.9307 11.0017 38.3537 11.7443C38.7767 12.487 39 13.3306 39 14.19L39 30.8091C39 30.8091 39 30.8092 39 30.8092C39 31.6686 38.7767 32.5121 38.3537 33.2549C37.9307 33.9975 37.3233 34.6125 36.5939 35.0394Z" fill="url(#paint0_linear_602_198)" stroke="white" stroke-width="2"/>
<path d="M33.3903 37.0921L32.2758 33.9475V33.9019L32.3204 33.8108C31.2318 31.7373 29.3913 30.1829 27.194 29.4814L24.1636 28.5699C24.0685 28.5441 23.9797 28.4983 23.9028 28.4356C23.826 28.3728 23.7627 28.2944 23.717 28.2053C23.6361 28.0189 23.6204 27.8097 23.6724 27.6129C23.7072 27.5313 23.7521 27.4547 23.8062 27.385L23.8953 27.2939L25.8122 24.1949C26.7483 22.691 27.1049 20.9592 26.7929 19.2307L26.6145 18.0458C26.4686 17.1264 26.1451 16.246 25.6629 15.4558C25.1807 14.6655 24.5496 13.9813 23.8062 13.4429L23.717 13.3973C22.5668 12.536 21.1778 12.0721 19.752 12.0733C18.2353 12.0683 16.7605 12.5816 15.5618 13.5316L15.4726 13.5772C14.2307 14.5684 13.3641 15.9699 13.0209 17.542L12.708 19.0004C12.3041 20.8431 12.6243 22.7743 13.5996 24.378L15.4304 27.3402L15.5196 27.4314C15.5741 27.5008 15.6191 27.5774 15.6533 27.6593C15.7425 27.8415 15.6979 28.0662 15.6087 28.2517C15.4908 28.4074 15.3383 28.5321 15.1638 28.6155L12.1269 29.5302C11.035 29.8697 10.0197 30.4271 9.1398 31.1702C8.25988 31.9134 7.53279 32.8274 7.00056 33.8596L6.95598 33.9052V33.9508L5.84155 37.0953L6.64394 37.3688L6.7522 37.0636L17.9626 44.4513H21.3775L32.5728 37.0742L32.677 37.3696L33.3903 37.0921Z" fill="white"/>
<defs>
<linearGradient id="paint0_linear_602_198" x1="22.4468" y1="45" x2="22.4468" y2="-2.68221e-06" gradientUnits="userSpaceOnUse">
<stop offset="0.328795" stop-color="#FF5000"/>
<stop offset="1" stop-color="#C81600"/>
</linearGradient>
</defs>
</svg>
