<svg width="200" height="44" viewBox="0 0 200 44" fill="none" xmlns="http://www.w3.org/2000/svg">
<path d="M198.292 19.2993L198.292 19.2993C198.754 20.1188 198.998 21.05 198.998 21.9994C198.998 22.9488 198.754 23.8802 198.292 24.6996L198.292 24.6996L189.491 40.318C189.029 41.1373 188.367 41.8147 187.573 42.2844C186.779 42.754 185.88 43.0001 184.967 43L184.967 43L15.0308 42.9999C14.1176 42.9999 13.219 42.7537 12.4252 42.2841C11.6312 41.8145 10.9689 41.1372 10.5072 40.3179L1.70567 24.6997C1.2439 23.8803 0.999923 22.949 0.999923 21.9995C0.999923 21.0501 1.2439 20.1188 1.70566 19.2994L10.5072 3.68213L9.63599 3.19116L10.5072 3.68211C10.9689 2.86282 11.6312 2.18551 12.4252 1.71585C13.219 1.24628 14.1176 1.00007 15.0308 1.00005L184.967 0.999996L184.967 0.999996C185.88 0.999886 186.779 1.24603 187.573 1.7156C188.367 2.18527 189.029 2.86265 189.491 3.68203C189.491 3.68204 189.491 3.68205 189.491 3.68206L198.292 19.2993Z" fill="url(#paint0_linear_459_687)" stroke="white" stroke-width="2"/>
<defs>
<linearGradient id="paint0_linear_459_687" x1="190.998" y1="19.3084" x2="13.3549" y2="19.3084" gradientUnits="userSpaceOnUse">
<stop offset="0.328795" stop-color="#FF5000"/>
<stop offset="1" stop-color="#C81600"/>
</linearGradient>
</defs>
</svg>
