<svg width="245" height="231" viewBox="0 0 245 231" fill="none" xmlns="http://www.w3.org/2000/svg">
<path d="M171.799 96.7212L176.883 100.745L174.866 102.775L200.975 154.513L208.285 185.183L191.192 205.553L165.133 183.687C165.133 183.687 157.224 186.43 136.992 186.544C129.201 186.581 121.074 183.678 113.567 179.603C96.6546 170.488 82.8493 155.568 82.8493 155.568L86.0082 147.655L113.861 115.355L109.163 112.138L112.854 98.8945L115.247 90.3386L58.1782 39.8897L58.1215 39.8421C52.6175 35.2237 51.8866 27.02 56.505 21.516C57.0883 20.8209 57.7305 20.1995 58.4057 19.6541C62.906 16.1058 69.3654 15.8693 74.1547 19.3804L155.425 83.6821L164.914 91.1853L168.163 93.7664L170.181 94.4443L170.818 94.6646L171.833 96.6525L171.799 96.7212Z" fill="#FAB29A"/>
<path d="M151.62 118.61C151.62 118.61 154.697 122.087 154.689 127.398C154.678 128.476 154.57 129.642 154.243 130.867C153.846 132.492 153.117 134.225 151.949 136.049C148.295 141.758 142.551 140.854 138.36 139.078C137.213 137.68 136.194 136.85 136.194 136.85L123.448 128.935L98.1369 113.207C98.1369 113.207 95.7823 99.967 108.819 91.9783C110.451 90.9549 112.33 90.0413 114.519 89.2189L137.101 107.104L139.404 108.94L151.634 118.622L151.62 118.61Z" fill="#FAB29A"/>
<path d="M126.392 165.586C125.979 167.173 125.028 169.083 123.207 171.254C116.375 179.396 111.282 175.123 82.8257 155.596C82.8257 155.596 75.95 147.168 83.8021 138.962C84.9205 137.774 86.3565 136.61 88.1482 135.454L124.646 158.851C124.646 158.851 127.554 161.147 126.392 165.586Z" fill="#FAB29A"/>
<path d="M136.206 136.836C136.206 136.836 140.665 140.481 141.58 145.382C141.951 147.361 141.761 149.546 140.442 151.752C136.338 158.775 131.308 161.226 124.632 158.839L88.1343 135.442C88.1343 135.442 83.0313 124.44 93.1237 116.301C94.5003 115.208 96.1422 114.145 98.1347 113.182L136.206 136.836Z" fill="#FAB29A"/>
<path d="M187.264 96.4981L199.575 139.559L227.151 162.698L201.227 193.594L163.791 162.182C149.376 146.606 159.125 126.72 159.125 126.72C157.854 127.975 156.61 129.083 155.379 130.032C155.011 130.327 154.64 130.596 154.255 130.853C140.89 140.356 130.725 132.189 126.419 127.439C125.094 125.965 125.187 123.722 126.647 122.385C131.661 117.793 135.899 113.203 139.402 108.914C145.28 101.735 149.142 95.4038 151.361 91.319C152.89 88.5169 156.042 86.9794 159.191 87.5188L159.952 87.6494L181.319 91.1954C184.16 91.6698 186.484 93.7404 187.264 96.4981Z" fill="#FAB29A"/>
</svg>
