<svg width="30" height="33" viewBox="0 0 30 33" fill="none" xmlns="http://www.w3.org/2000/svg">
<path d="M17.1761 32.4222L27.8242 26.3285C28.4857 25.9499 29.0351 25.4055 29.417 24.7498C29.7989 24.0942 30 23.3505 30 22.5934L30 10.406C30 9.64892 29.7989 8.90519 29.417 8.24955C29.0351 7.5939 28.4857 7.04945 27.8242 6.67092L17.1761 0.577839C16.5146 0.199292 15.7642 1.99301e-06 15.0003 1.9265e-06C14.2365 1.85998e-06 13.4861 0.199292 12.8246 0.577839L2.17576 6.67091C1.51417 7.0495 0.964794 7.59405 0.582863 8.24981C0.200933 8.90557 -9.14271e-05 9.64943 -1.76949e-06 10.4066L-2.83915e-06 22.5934C1.64988e-05 23.3505 0.201093 24.0942 0.583018 24.7498C0.964942 25.4055 1.51426 25.9499 2.17576 26.3285L12.8245 32.4222C13.4861 32.8007 14.2365 33 15.0003 33C15.7642 33 16.5146 32.8007 17.1761 32.4222V32.4222Z" fill="white"/>
<path d="M9.375 17H20.625" stroke="#C81600" stroke-width="1.875" stroke-linecap="round"/>
<path d="M9.375 12H20.625" stroke="#C81600" stroke-width="1.875" stroke-linecap="round"/>
<path d="M9.375 22H20.625" stroke="#C81600" stroke-width="1.875" stroke-linecap="round"/>
</svg>
