<svg width="50" height="45" viewBox="0 0 50 45" fill="none" xmlns="http://www.w3.org/2000/svg">
<path d="M36.5939 35.0394L36.5939 35.0394L22.3963 43.349C21.667 43.7758 20.8407 44 20.0004 44C19.1601 44 18.3339 43.7758 17.6045 43.349L3.40612 35.0394C2.67669 34.6125 2.06929 33.9975 1.6463 33.2549C1.22326 32.5121 1.00002 31.6686 1 30.8092L1 14.1908L1 14.1907C0.999904 13.3312 1.22308 12.4875 1.64613 11.7446C2.06911 11.0018 2.67657 10.3867 3.40608 9.95978C3.40609 9.95977 3.40611 9.95976 3.40612 9.95976L17.6045 1.65104L17.6045 1.65101C18.3339 1.22416 19.1601 0.999998 20.0004 0.999998C20.8407 0.999998 21.667 1.22417 22.3963 1.65101L22.898 0.793799L22.3963 1.65103L36.5939 9.95976C37.3233 10.3867 37.9307 11.0017 38.3537 11.7443C38.7767 12.487 39 13.3306 39 14.19L39 30.8091C39 30.8091 39 30.8092 39 30.8092C39 31.6686 38.7767 32.5121 38.3537 33.2549C37.9307 33.9975 37.3233 34.6125 36.5939 35.0394Z" fill="url(#paint0_linear_605_230)" stroke="white" stroke-width="2"/>
<path d="M33.3904 37.0921L32.276 33.9475V33.9019L32.3205 33.8108C31.232 31.7373 29.3914 30.1829 27.1942 29.4814L24.1637 28.5699C24.0686 28.5441 23.9798 28.4983 23.903 28.4356C23.8261 28.3728 23.7628 28.2944 23.7171 28.2053C23.6362 28.0189 23.6205 27.8097 23.6726 27.6129C23.7073 27.5313 23.7522 27.4547 23.8063 27.385L23.8955 27.2939L25.8123 24.1949C26.7484 22.691 27.105 20.9592 26.793 19.2307L26.6147 18.0458C26.4687 17.1264 26.1452 16.246 25.663 15.4558C25.1809 14.6655 24.5497 13.9813 23.8063 13.4429L23.7171 13.3973C22.5669 12.536 21.1779 12.0721 19.7522 12.0733C18.2355 12.0683 16.7606 12.5816 15.5619 13.5316L15.4727 13.5772C14.2308 14.5684 13.3642 15.9699 13.021 17.542L12.7082 19.0004C12.3042 20.8431 12.6244 22.7743 13.5997 24.378L15.4306 27.3402L15.5197 27.4314C15.5742 27.5008 15.6192 27.5774 15.6534 27.6593C15.7426 27.8415 15.698 28.0662 15.6089 28.2517C15.491 28.4074 15.3384 28.5321 15.1639 28.6155L12.1271 29.5302C11.0351 29.8697 10.0198 30.4271 9.13992 31.1702C8.26 31.9134 7.53291 32.8274 7.00068 33.8596L6.95611 33.9052V33.9508L5.84167 37.0953L6.64407 37.3688L6.75232 37.0636L17.9627 44.4513H21.3776L32.5729 37.0742L32.6772 37.3696L33.3904 37.0921Z" fill="white"/>
<g filter="url(#filter0_d_605_230)">
<circle cx="40" cy="23" r="8" fill="white"/>
</g>
<path d="M37 23H43" stroke="#C81600" stroke-linecap="round"/>
<path d="M37 20.3335H43" stroke="#C81600" stroke-linecap="round"/>
<path d="M37 25.6665H43" stroke="#C81600" stroke-linecap="round"/>
<defs>
<filter id="filter0_d_605_230" x="30" y="13.5" width="20" height="20" filterUnits="userSpaceOnUse" color-interpolation-filters="sRGB">
<feFlood flood-opacity="0" result="BackgroundImageFix"/>
<feColorMatrix in="SourceAlpha" type="matrix" values="0 0 0 0 0 0 0 0 0 0 0 0 0 0 0 0 0 0 127 0" result="hardAlpha"/>
<feOffset dy="0.5"/>
<feGaussianBlur stdDeviation="1"/>
<feComposite in2="hardAlpha" operator="out"/>
<feColorMatrix type="matrix" values="0 0 0 0 0.529412 0 0 0 0 0.196078 0 0 0 0 0.00784314 0 0 0 0.8 0"/>
<feBlend mode="normal" in2="BackgroundImageFix" result="effect1_dropShadow_605_230"/>
<feBlend mode="normal" in="SourceGraphic" in2="effect1_dropShadow_605_230" result="shape"/>
</filter>
<linearGradient id="paint0_linear_605_230" x1="22.4468" y1="45" x2="22.4468" y2="-2.68221e-06" gradientUnits="userSpaceOnUse">
<stop offset="0.328795" stop-color="#FF5000"/>
<stop offset="1" stop-color="#C81600"/>
</linearGradient>
</defs>
</svg>
